<svg viewBox="-16 -32 880 192" width="880" height="192" xmlns="http://www.w3.org/2000/svg"><style>@keyframes c0{62.89%{fill:var(--c4)}62.91%,to{fill:var(--ce)}}@keyframes c1{62.43%{fill:var(--c3)}62.45%,to{fill:var(--ce)}}@keyframes c2{18.09%{fill:var(--c1)}18.11%,to{fill:var(--ce)}}@keyframes c3{60.17%{fill:var(--c3)}60.19%,to{fill:var(--ce)}}@keyframes c4{44.33%{fill:var(--c2)}44.35%,to{fill:var(--ce)}}@keyframes c5{20.35%{fill:var(--c1)}20.37%,to{fill:var(--ce)}}@keyframes c6{58.81%{fill:var(--c3)}58.83%,to{fill:var(--ce)}}@keyframes c7{40.71%{fill:var(--c2)}40.73%,to{fill:var(--ce)}}@keyframes c8{27.14%{fill:var(--c1)}27.16%,to{fill:var(--ce)}}@keyframes c9{38.45%{fill:var(--c2)}38.47%,to{fill:var(--ce)}}@keyframes ca{68.77%{fill:var(--c4)}68.79%,to{fill:var(--ce)}}@keyframes cb{69.22%{fill:var(--c4)}69.24%,to{fill:var(--ce)}}@keyframes cc{24.42%{fill:var(--c1)}24.44%,to{fill:var(--ce)}}@keyframes cd{54.74%{fill:var(--c3)}54.76%,to{fill:var(--ce)}}@keyframes ce{37.55%{fill:var(--c2)}37.57%,to{fill:var(--ce)}}@keyframes cf{32.57%{fill:var(--c1)}32.59%,to{fill:var(--ce)}}@keyframes cg{74.65%{fill:var(--c4)}74.67%,to{fill:var(--ce)}}@keyframes ch{51.57%{fill:var(--c2)}51.59%,to{fill:var(--ce)}}@keyframes ci{71.94%{fill:var(--c4)}71.96%,to{fill:var(--ce)}}@keyframes cj{71.03%{fill:var(--c4)}71.05%,to{fill:var(--ce)}}@keyframes ck{31.66%{fill:var(--c1)}31.68%,to{fill:var(--ce)}}@keyframes cl{34.83%{fill:var(--c1)}34.85%,to{fill:var(--ce)}}@keyframes u0{18.09%{transform:scale(0,1)}18.11%,20.35%{transform:scale(.14,1)}20.37%,24.42%{transform:scale(.29,1)}24.44%,27.14%{transform:scale(.43,1)}27.16%,31.66%{transform:scale(.57,1)}31.68%,32.57%{transform:scale(.71,1)}32.59%,34.83%{transform:scale(.86,1)}34.85%,to{transform:scale(1,1)}}@keyframes u1{37.55%{transform:scale(0,1)}37.57%,38.45%{transform:scale(.2,1)}38.47%,40.71%{transform:scale(.4,1)}40.73%,44.33%{transform:scale(.6,1)}44.35%,51.57%{transform:scale(.8,1)}51.59%,to{transform:scale(1,1)}}@keyframes u2{54.74%{transform:scale(0,1)}54.76%,58.81%{transform:scale(.25,1)}58.83%,60.17%{transform:scale(.5,1)}60.19%,62.43%{transform:scale(.75,1)}62.45%,to{transform:scale(1,1)}}@keyframes u3{62.89%{transform:scale(0,1)}62.91%,68.77%{transform:scale(.17,1)}68.79%,69.22%{transform:scale(.33,1)}69.24%,71.03%{transform:scale(.5,1)}71.05%,71.94%{transform:scale(.67,1)}71.96%,74.65%{transform:scale(.83,1)}74.67%,to{transform:scale(1,1)}}@keyframes s0{0%,99.55%{transform:translate(0,-16px)}.45%{transform:translate(0,0)}17.19%{transform:translate(592px,0)}18.1%{transform:translate(592px,32px)}18.55%,44.8%{transform:translate(608px,32px)}20.36%{transform:translate(608px,96px)}24.43%{transform:translate(752px,96px)}24.89%{transform:translate(752px,80px)}25.79%{transform:translate(720px,80px)}26.7%{transform:translate(720px,48px)}27.15%{transform:translate(704px,48px)}27.6%{transform:translate(704px,32px)}28.51%,48.42%{transform:translate(736px,32px)}28.96%,39.82%{transform:translate(736px,16px)}30.32%{transform:translate(784px,16px)}31.22%,33.03%,53.85%{transform:translate(784px,48px)}31.67%,53.39%,70.59%{transform:translate(800px,48px)}32.13%{transform:translate(800px,64px)}32.58%{transform:translate(784px,64px)}34.39%{transform:translate(832px,48px)}34.84%{transform:translate(832px,32px)}35.29%{transform:translate(816px,32px)}35.75%{transform:translate(816px,48px)}37.1%{transform:translate(768px,48px)}37.56%,50.23%{transform:translate(768px,64px)}38.46%,49.32%{transform:translate(736px,64px)}40.72%{transform:translate(704px,16px)}41.18%{transform:translate(704px,0)}43.44%{transform:translate(624px,0)}43.89%{transform:translate(624px,16px)}44.34%{transform:translate(608px,16px)}51.13%{transform:translate(768px,96px)}52.04%{transform:translate(800px,96px)}54.3%{transform:translate(784px,32px)}54.75%{transform:translate(768px,32px)}55.2%{transform:translate(768px,16px)}58.82%{transform:translate(640px,16px)}59.28%{transform:translate(640px,0)}61.09%{transform:translate(576px,0)}61.99%{transform:translate(576px,32px)}62.44%{transform:translate(560px,32px)}62.9%{transform:translate(560px,16px)}68.33%{transform:translate(752px,16px)}69.23%{transform:translate(752px,48px)}71.95%{transform:translate(800px,0)}72.4%{transform:translate(784px,0)}74.66%{transform:translate(784px,80px)}92.31%{transform:translate(160px,80px)}92.76%{transform:translate(160px,64px)}93.67%{transform:translate(128px,64px)}94.12%{transform:translate(128px,48px)}94.57%{transform:translate(112px,48px)}95.02%{transform:translate(112px,32px)}95.48%{transform:translate(96px,32px)}96.83%{transform:translate(96px,-16px)}}@keyframes s1{0%,99.55%{transform:translate(16px,-16px)}.45%{transform:translate(0,-16px)}.9%{transform:translate(0,0)}17.65%{transform:translate(592px,0)}18.55%{transform:translate(592px,32px)}19%,45.25%{transform:translate(608px,32px)}20.81%{transform:translate(608px,96px)}24.89%{transform:translate(752px,96px)}25.34%{transform:translate(752px,80px)}26.24%{transform:translate(720px,80px)}27.15%{transform:translate(720px,48px)}27.6%{transform:translate(704px,48px)}28.05%{transform:translate(704px,32px)}28.96%,48.87%{transform:translate(736px,32px)}29.41%,40.27%{transform:translate(736px,16px)}30.77%{transform:translate(784px,16px)}31.67%,33.48%,54.3%{transform:translate(784px,48px)}32.13%,53.85%,71.04%{transform:translate(800px,48px)}32.58%{transform:translate(800px,64px)}33.03%{transform:translate(784px,64px)}34.84%{transform:translate(832px,48px)}35.29%{transform:translate(832px,32px)}35.75%{transform:translate(816px,32px)}36.2%{transform:translate(816px,48px)}37.56%{transform:translate(768px,48px)}38.01%,50.68%{transform:translate(768px,64px)}38.91%,49.77%{transform:translate(736px,64px)}41.18%{transform:translate(704px,16px)}41.63%{transform:translate(704px,0)}43.89%{transform:translate(624px,0)}44.34%{transform:translate(624px,16px)}44.8%{transform:translate(608px,16px)}51.58%{transform:translate(768px,96px)}52.49%{transform:translate(800px,96px)}54.75%{transform:translate(784px,32px)}55.2%{transform:translate(768px,32px)}55.66%{transform:translate(768px,16px)}59.28%{transform:translate(640px,16px)}59.73%{transform:translate(640px,0)}61.54%{transform:translate(576px,0)}62.44%{transform:translate(576px,32px)}62.9%{transform:translate(560px,32px)}63.35%{transform:translate(560px,16px)}68.78%{transform:translate(752px,16px)}69.68%{transform:translate(752px,48px)}72.4%{transform:translate(800px,0)}72.85%{transform:translate(784px,0)}75.11%{transform:translate(784px,80px)}92.76%{transform:translate(160px,80px)}93.21%{transform:translate(160px,64px)}94.12%{transform:translate(128px,64px)}94.57%{transform:translate(128px,48px)}95.02%{transform:translate(112px,48px)}95.48%{transform:translate(112px,32px)}95.93%{transform:translate(96px,32px)}97.29%{transform:translate(96px,-16px)}}@keyframes s2{0%,99.55%{transform:translate(32px,-16px)}.9%{transform:translate(0,-16px)}1.36%{transform:translate(0,0)}18.1%{transform:translate(592px,0)}19%{transform:translate(592px,32px)}19.46%,45.7%{transform:translate(608px,32px)}21.27%{transform:translate(608px,96px)}25.34%{transform:translate(752px,96px)}25.79%{transform:translate(752px,80px)}26.7%{transform:translate(720px,80px)}27.6%{transform:translate(720px,48px)}28.05%{transform:translate(704px,48px)}28.51%{transform:translate(704px,32px)}29.41%,49.32%{transform:translate(736px,32px)}29.86%,40.72%{transform:translate(736px,16px)}31.22%{transform:translate(784px,16px)}32.13%,33.94%,54.75%{transform:translate(784px,48px)}32.58%,54.3%,71.49%{transform:translate(800px,48px)}33.03%{transform:translate(800px,64px)}33.48%{transform:translate(784px,64px)}35.29%{transform:translate(832px,48px)}35.75%{transform:translate(832px,32px)}36.2%{transform:translate(816px,32px)}36.65%{transform:translate(816px,48px)}38.01%{transform:translate(768px,48px)}38.46%,51.13%{transform:translate(768px,64px)}39.37%,50.23%{transform:translate(736px,64px)}41.63%{transform:translate(704px,16px)}42.08%{transform:translate(704px,0)}44.34%{transform:translate(624px,0)}44.8%{transform:translate(624px,16px)}45.25%{transform:translate(608px,16px)}52.04%{transform:translate(768px,96px)}52.94%{transform:translate(800px,96px)}55.2%{transform:translate(784px,32px)}55.66%{transform:translate(768px,32px)}56.11%{transform:translate(768px,16px)}59.73%{transform:translate(640px,16px)}60.18%{transform:translate(640px,0)}61.99%{transform:translate(576px,0)}62.9%{transform:translate(576px,32px)}63.35%{transform:translate(560px,32px)}63.8%{transform:translate(560px,16px)}69.23%{transform:translate(752px,16px)}70.14%{transform:translate(752px,48px)}72.85%{transform:translate(800px,0)}73.3%{transform:translate(784px,0)}75.57%{transform:translate(784px,80px)}93.21%{transform:translate(160px,80px)}93.67%{transform:translate(160px,64px)}94.57%{transform:translate(128px,64px)}95.02%{transform:translate(128px,48px)}95.48%{transform:translate(112px,48px)}95.93%{transform:translate(112px,32px)}96.38%{transform:translate(96px,32px)}97.74%{transform:translate(96px,-16px)}}@keyframes s3{0%,99.55%{transform:translate(48px,-16px)}1.36%{transform:translate(0,-16px)}1.81%{transform:translate(0,0)}18.55%{transform:translate(592px,0)}19.46%{transform:translate(592px,32px)}19.91%,46.15%{transform:translate(608px,32px)}21.72%{transform:translate(608px,96px)}25.79%{transform:translate(752px,96px)}26.24%{transform:translate(752px,80px)}27.15%{transform:translate(720px,80px)}28.05%{transform:translate(720px,48px)}28.51%{transform:translate(704px,48px)}28.96%{transform:translate(704px,32px)}29.86%,49.77%{transform:translate(736px,32px)}30.32%,41.18%{transform:translate(736px,16px)}31.67%{transform:translate(784px,16px)}32.58%,34.39%,55.2%{transform:translate(784px,48px)}33.03%,54.75%,71.95%{transform:translate(800px,48px)}33.48%{transform:translate(800px,64px)}33.94%{transform:translate(784px,64px)}35.75%{transform:translate(832px,48px)}36.2%{transform:translate(832px,32px)}36.65%{transform:translate(816px,32px)}37.1%{transform:translate(816px,48px)}38.46%{transform:translate(768px,48px)}38.91%,51.58%{transform:translate(768px,64px)}39.82%,50.68%{transform:translate(736px,64px)}42.08%{transform:translate(704px,16px)}42.53%{transform:translate(704px,0)}44.8%{transform:translate(624px,0)}45.25%{transform:translate(624px,16px)}45.7%{transform:translate(608px,16px)}52.49%{transform:translate(768px,96px)}53.39%{transform:translate(800px,96px)}55.66%{transform:translate(784px,32px)}56.11%{transform:translate(768px,32px)}56.56%{transform:translate(768px,16px)}60.18%{transform:translate(640px,16px)}60.63%{transform:translate(640px,0)}62.44%{transform:translate(576px,0)}63.35%{transform:translate(576px,32px)}63.8%{transform:translate(560px,32px)}64.25%{transform:translate(560px,16px)}69.68%{transform:translate(752px,16px)}70.59%{transform:translate(752px,48px)}73.3%{transform:translate(800px,0)}73.76%{transform:translate(784px,0)}76.02%{transform:translate(784px,80px)}93.67%{transform:translate(160px,80px)}94.12%{transform:translate(160px,64px)}95.02%{transform:translate(128px,64px)}95.48%{transform:translate(128px,48px)}95.93%{transform:translate(112px,48px)}96.38%{transform:translate(112px,32px)}96.83%{transform:translate(96px,32px)}98.19%{transform:translate(96px,-16px)}}:root{--cb:#1b1f230a;--cs:purple;--ce:#ebedf0;--c0:#ebedf0;--c1:#9be9a8;--c2:#40c463;--c3:#30a14e;--c4:#216e39}.c{shape-rendering:geometricPrecision;rx:2;ry:2;fill:var(--ce);stroke-width:1px;stroke:var(--cb);animation:none 22100ms linear infinite}.c.c0{fill:var(--c4);animation-name:c0}.c.c1{fill:var(--c3);animation-name:c1}.c.c2{fill:var(--c1);animation-name:c2}.c.c3{fill:var(--c3);animation-name:c3}.c.c4{fill:var(--c2);animation-name:c4}.c.c5{fill:var(--c1);animation-name:c5}.c.c6{fill:var(--c3);animation-name:c6}.c.c7{fill:var(--c2);animation-name:c7}.c.c8{fill:var(--c1);animation-name:c8}.c.c9{fill:var(--c2);animation-name:c9}.c.ca,.c.cb{fill:var(--c4);animation-name:ca}.c.cb{animation-name:cb}.c.cc{fill:var(--c1);animation-name:cc}.c.cd{fill:var(--c3);animation-name:cd}.c.ce{fill:var(--c2);animation-name:ce}.c.cf{fill:var(--c1);animation-name:cf}.c.cg{fill:var(--c4);animation-name:cg}.c.ch{fill:var(--c2);animation-name:ch}.c.ci,.c.cj{fill:var(--c4);animation-name:ci}.c.cj{animation-name:cj}.c.ck,.c.cl{fill:var(--c1);animation-name:ck}.c.cl{animation-name:cl}.s,.u{animation:none linear 22100ms infinite}.u,.u.u0{transform-origin:0 0}.u{transform:scale(0,1)}.u.u0{fill:var(--c1);animation-name:u0}.u.u1{fill:var(--c2);animation-name:u1;transform-origin:269.8px 0}.u.u2{fill:var(--c3);animation-name:u2;transform-origin:462.5px 0}.u.u3{fill:var(--c4);animation-name:u3;transform-origin:616.7px 0}.s{shape-rendering:geometricPrecision;fill:var(--cs)}.s.s0{transform:translate(0,-16px);animation-name:s0}.s.s1{transform:translate(16px,-16px);animation-name:s1}.s.s2{transform:translate(32px,-16px);animation-name:s2}.s.s3{transform:translate(48px,-16px);animation-name:s3}</style><rect class="c" x="2" y="2" width="12" height="12"/><rect class="c" x="2" y="18" width="12" height="12"/><rect class="c" x="2" y="34" width="12" height="12"/><rect class="c" x="2" y="50" width="12" height="12"/><rect class="c" x="2" y="66" width="12" height="12"/><rect class="c" x="2" y="82" width="12" height="12"/><rect class="c" x="2" y="98" width="12" height="12"/><rect class="c" x="18" y="2" width="12" height="12"/><rect class="c" x="18" y="18" width="12" height="12"/><rect class="c" x="18" y="34" width="12" height="12"/><rect class="c" x="18" y="50" width="12" height="12"/><rect class="c" x="18" y="66" width="12" height="12"/><rect class="c" x="18" y="82" width="12" height="12"/><rect class="c" x="18" y="98" width="12" height="12"/><rect class="c" x="34" y="2" width="12" height="12"/><rect class="c" x="34" y="18" width="12" height="12"/><rect class="c" x="34" y="34" width="12" height="12"/><rect class="c" x="34" y="50" width="12" height="12"/><rect class="c" x="34" y="66" width="12" height="12"/><rect class="c" x="34" y="82" width="12" height="12"/><rect class="c" x="34" y="98" width="12" height="12"/><rect class="c" x="50" y="2" width="12" height="12"/><rect class="c" x="50" y="18" width="12" height="12"/><rect class="c" x="50" y="34" width="12" height="12"/><rect class="c" x="50" y="50" width="12" height="12"/><rect class="c" x="50" y="66" width="12" height="12"/><rect class="c" x="50" y="82" width="12" height="12"/><rect class="c" x="50" y="98" width="12" height="12"/><rect class="c" x="66" y="2" width="12" height="12"/><rect class="c" x="66" y="18" width="12" height="12"/><rect class="c" x="66" y="34" width="12" height="12"/><rect class="c" x="66" y="50" width="12" height="12"/><rect class="c" x="66" y="66" width="12" height="12"/><rect class="c" x="66" y="82" width="12" height="12"/><rect class="c" x="66" y="98" width="12" height="12"/><rect class="c" x="82" y="2" width="12" height="12"/><rect class="c" x="82" y="18" width="12" height="12"/><rect class="c" x="82" y="34" width="12" height="12"/><rect class="c" x="82" y="50" width="12" height="12"/><rect class="c" x="82" y="66" width="12" height="12"/><rect class="c" x="82" y="82" width="12" height="12"/><rect class="c" x="82" y="98" width="12" height="12"/><rect class="c" x="98" y="2" width="12" height="12"/><rect class="c" x="98" y="18" width="12" height="12"/><rect class="c" x="98" y="34" width="12" height="12"/><rect class="c" x="98" y="50" width="12" height="12"/><rect class="c" x="98" y="66" width="12" height="12"/><rect class="c" x="98" y="82" width="12" height="12"/><rect class="c" x="98" y="98" width="12" height="12"/><rect class="c" x="114" y="2" width="12" height="12"/><rect class="c" x="114" y="18" width="12" height="12"/><rect class="c" x="114" y="34" width="12" height="12"/><rect class="c" x="114" y="50" width="12" height="12"/><rect class="c" x="114" y="66" width="12" height="12"/><rect class="c" x="114" y="82" width="12" height="12"/><rect class="c" x="114" y="98" width="12" height="12"/><rect class="c" x="130" y="2" width="12" height="12"/><rect class="c" x="130" y="18" width="12" height="12"/><rect class="c" x="130" y="34" width="12" height="12"/><rect class="c" x="130" y="50" width="12" height="12"/><rect class="c" x="130" y="66" width="12" height="12"/><rect class="c" x="130" y="82" width="12" height="12"/><rect class="c" x="130" y="98" width="12" height="12"/><rect class="c" x="146" y="2" width="12" height="12"/><rect class="c" x="146" y="18" width="12" height="12"/><rect class="c" x="146" y="34" width="12" height="12"/><rect class="c" x="146" y="50" width="12" height="12"/><rect class="c" x="146" y="66" width="12" height="12"/><rect class="c" x="146" y="82" width="12" height="12"/><rect class="c" x="146" y="98" width="12" height="12"/><rect class="c" x="162" y="2" width="12" height="12"/><rect class="c" x="162" y="18" width="12" height="12"/><rect class="c" x="162" y="34" width="12" height="12"/><rect class="c" x="162" y="50" width="12" height="12"/><rect class="c" x="162" y="66" width="12" height="12"/><rect class="c" x="162" y="82" width="12" height="12"/><rect class="c" x="162" y="98" width="12" height="12"/><rect class="c" x="178" y="2" width="12" height="12"/><rect class="c" x="178" y="18" width="12" height="12"/><rect class="c" x="178" y="34" width="12" height="12"/><rect class="c" x="178" y="50" width="12" height="12"/><rect class="c" x="178" y="66" width="12" height="12"/><rect class="c" x="178" y="82" width="12" height="12"/><rect class="c" x="178" y="98" width="12" height="12"/><rect class="c" x="194" y="2" width="12" height="12"/><rect class="c" x="194" y="18" width="12" height="12"/><rect class="c" x="194" y="34" width="12" height="12"/><rect class="c" x="194" y="50" width="12" height="12"/><rect class="c" x="194" y="66" width="12" height="12"/><rect class="c" x="194" y="82" width="12" height="12"/><rect class="c" x="194" y="98" width="12" height="12"/><rect class="c" x="210" y="2" width="12" height="12"/><rect class="c" x="210" y="18" width="12" height="12"/><rect class="c" x="210" y="34" width="12" height="12"/><rect class="c" x="210" y="50" width="12" height="12"/><rect class="c" x="210" y="66" width="12" height="12"/><rect class="c" x="210" y="82" width="12" height="12"/><rect class="c" x="210" y="98" width="12" height="12"/><rect class="c" x="226" y="2" width="12" height="12"/><rect class="c" x="226" y="18" width="12" height="12"/><rect class="c" x="226" y="34" width="12" height="12"/><rect class="c" x="226" y="50" width="12" height="12"/><rect class="c" x="226" y="66" width="12" height="12"/><rect class="c" x="226" y="82" width="12" height="12"/><rect class="c" x="226" y="98" width="12" height="12"/><rect class="c" x="242" y="2" width="12" height="12"/><rect class="c" x="242" y="18" width="12" height="12"/><rect class="c" x="242" y="34" width="12" height="12"/><rect class="c" x="242" y="50" width="12" height="12"/><rect class="c" x="242" y="66" width="12" height="12"/><rect class="c" x="242" y="82" width="12" height="12"/><rect class="c" x="242" y="98" width="12" height="12"/><rect class="c" x="258" y="2" width="12" height="12"/><rect class="c" x="258" y="18" width="12" height="12"/><rect class="c" x="258" y="34" width="12" height="12"/><rect class="c" x="258" y="50" width="12" height="12"/><rect class="c" x="258" y="66" width="12" height="12"/><rect class="c" x="258" y="82" width="12" height="12"/><rect class="c" x="258" y="98" width="12" height="12"/><rect class="c" x="274" y="2" width="12" height="12"/><rect class="c" x="274" y="18" width="12" height="12"/><rect class="c" x="274" y="34" width="12" height="12"/><rect class="c" x="274" y="50" width="12" height="12"/><rect class="c" x="274" y="66" width="12" height="12"/><rect class="c" x="274" y="82" width="12" height="12"/><rect class="c" x="274" y="98" width="12" height="12"/><rect class="c" x="290" y="2" width="12" height="12"/><rect class="c" x="290" y="18" width="12" height="12"/><rect class="c" x="290" y="34" width="12" height="12"/><rect class="c" x="290" y="50" width="12" height="12"/><rect class="c" x="290" y="66" width="12" height="12"/><rect class="c" x="290" y="82" width="12" height="12"/><rect class="c" x="290" y="98" width="12" height="12"/><rect class="c" x="306" y="2" width="12" height="12"/><rect class="c" x="306" y="18" width="12" height="12"/><rect class="c" x="306" y="34" width="12" height="12"/><rect class="c" x="306" y="50" width="12" height="12"/><rect class="c" x="306" y="66" width="12" height="12"/><rect class="c" x="306" y="82" width="12" height="12"/><rect class="c" x="306" y="98" width="12" height="12"/><rect class="c" x="322" y="2" width="12" height="12"/><rect class="c" x="322" y="18" width="12" height="12"/><rect class="c" x="322" y="34" width="12" height="12"/><rect class="c" x="322" y="50" width="12" height="12"/><rect class="c" x="322" y="66" width="12" height="12"/><rect class="c" x="322" y="82" width="12" height="12"/><rect class="c" x="322" y="98" width="12" height="12"/><rect class="c" x="338" y="2" width="12" height="12"/><rect class="c" x="338" y="18" width="12" height="12"/><rect class="c" x="338" y="34" width="12" height="12"/><rect class="c" x="338" y="50" width="12" height="12"/><rect class="c" x="338" y="66" width="12" height="12"/><rect class="c" x="338" y="82" width="12" height="12"/><rect class="c" x="338" y="98" width="12" height="12"/><rect class="c" x="354" y="2" width="12" height="12"/><rect class="c" x="354" y="18" width="12" height="12"/><rect class="c" x="354" y="34" width="12" height="12"/><rect class="c" x="354" y="50" width="12" height="12"/><rect class="c" x="354" y="66" width="12" height="12"/><rect class="c" x="354" y="82" width="12" height="12"/><rect class="c" x="354" y="98" width="12" height="12"/><rect class="c" x="370" y="2" width="12" height="12"/><rect class="c" x="370" y="18" width="12" height="12"/><rect class="c" x="370" y="34" width="12" height="12"/><rect class="c" x="370" y="50" width="12" height="12"/><rect class="c" x="370" y="66" width="12" height="12"/><rect class="c" x="370" y="82" width="12" height="12"/><rect class="c" x="370" y="98" width="12" height="12"/><rect class="c" x="386" y="2" width="12" height="12"/><rect class="c" x="386" y="18" width="12" height="12"/><rect class="c" x="386" y="34" width="12" height="12"/><rect class="c" x="386" y="50" width="12" height="12"/><rect class="c" x="386" y="66" width="12" height="12"/><rect class="c" x="386" y="82" width="12" height="12"/><rect class="c" x="386" y="98" width="12" height="12"/><rect class="c" x="402" y="2" width="12" height="12"/><rect class="c" x="402" y="18" width="12" height="12"/><rect class="c" x="402" y="34" width="12" height="12"/><rect class="c" x="402" y="50" width="12" height="12"/><rect class="c" x="402" y="66" width="12" height="12"/><rect class="c" x="402" y="82" width="12" height="12"/><rect class="c" x="402" y="98" width="12" height="12"/><rect class="c" x="418" y="2" width="12" height="12"/><rect class="c" x="418" y="18" width="12" height="12"/><rect class="c" x="418" y="34" width="12" height="12"/><rect class="c" x="418" y="50" width="12" height="12"/><rect class="c" x="418" y="66" width="12" height="12"/><rect class="c" x="418" y="82" width="12" height="12"/><rect class="c" x="418" y="98" width="12" height="12"/><rect class="c" x="434" y="2" width="12" height="12"/><rect class="c" x="434" y="18" width="12" height="12"/><rect class="c" x="434" y="34" width="12" height="12"/><rect class="c" x="434" y="50" width="12" height="12"/><rect class="c" x="434" y="66" width="12" height="12"/><rect class="c" x="434" y="82" width="12" height="12"/><rect class="c" x="434" y="98" width="12" height="12"/><rect class="c" x="450" y="2" width="12" height="12"/><rect class="c" x="450" y="18" width="12" height="12"/><rect class="c" x="450" y="34" width="12" height="12"/><rect class="c" x="450" y="50" width="12" height="12"/><rect class="c" x="450" y="66" width="12" height="12"/><rect class="c" x="450" y="82" width="12" height="12"/><rect class="c" x="450" y="98" width="12" height="12"/><rect class="c" x="466" y="2" width="12" height="12"/><rect class="c" x="466" y="18" width="12" height="12"/><rect class="c" x="466" y="34" width="12" height="12"/><rect class="c" x="466" y="50" width="12" height="12"/><rect class="c" x="466" y="66" width="12" height="12"/><rect class="c" x="466" y="82" width="12" height="12"/><rect class="c" x="466" y="98" width="12" height="12"/><rect class="c" x="482" y="2" width="12" height="12"/><rect class="c" x="482" y="18" width="12" height="12"/><rect class="c" x="482" y="34" width="12" height="12"/><rect class="c" x="482" y="50" width="12" height="12"/><rect class="c" x="482" y="66" width="12" height="12"/><rect class="c" x="482" y="82" width="12" height="12"/><rect class="c" x="482" y="98" width="12" height="12"/><rect class="c" x="498" y="2" width="12" height="12"/><rect class="c" x="498" y="18" width="12" height="12"/><rect class="c" x="498" y="34" width="12" height="12"/><rect class="c" x="498" y="50" width="12" height="12"/><rect class="c" x="498" y="66" width="12" height="12"/><rect class="c" x="498" y="82" width="12" height="12"/><rect class="c" x="498" y="98" width="12" height="12"/><rect class="c" x="514" y="2" width="12" height="12"/><rect class="c" x="514" y="18" width="12" height="12"/><rect class="c" x="514" y="34" width="12" height="12"/><rect class="c" x="514" y="50" width="12" height="12"/><rect class="c" x="514" y="66" width="12" height="12"/><rect class="c" x="514" y="82" width="12" height="12"/><rect class="c" x="514" y="98" width="12" height="12"/><rect class="c" x="530" y="2" width="12" height="12"/><rect class="c" x="530" y="18" width="12" height="12"/><rect class="c" x="530" y="34" width="12" height="12"/><rect class="c" x="530" y="50" width="12" height="12"/><rect class="c" x="530" y="66" width="12" height="12"/><rect class="c" x="530" y="82" width="12" height="12"/><rect class="c" x="530" y="98" width="12" height="12"/><rect class="c" x="546" y="2" width="12" height="12"/><rect class="c" x="546" y="18" width="12" height="12"/><rect class="c" x="546" y="34" width="12" height="12"/><rect class="c" x="546" y="50" width="12" height="12"/><rect class="c" x="546" y="66" width="12" height="12"/><rect class="c" x="546" y="82" width="12" height="12"/><rect class="c" x="546" y="98" width="12" height="12"/><rect class="c" x="562" y="2" width="12" height="12"/><rect class="c c0" x="562" y="18" width="12" height="12"/><rect class="c c1" x="562" y="34" width="12" height="12"/><rect class="c" x="562" y="50" width="12" height="12"/><rect class="c" x="562" y="66" width="12" height="12"/><rect class="c" x="562" y="82" width="12" height="12"/><rect class="c" x="562" y="98" width="12" height="12"/><rect class="c" x="578" y="2" width="12" height="12"/><rect class="c" x="578" y="18" width="12" height="12"/><rect class="c" x="578" y="34" width="12" height="12"/><rect class="c" x="578" y="50" width="12" height="12"/><rect class="c" x="578" y="66" width="12" height="12"/><rect class="c" x="578" y="82" width="12" height="12"/><rect class="c" x="578" y="98" width="12" height="12"/><rect class="c" x="594" y="2" width="12" height="12"/><rect class="c" x="594" y="18" width="12" height="12"/><rect class="c c2" x="594" y="34" width="12" height="12"/><rect class="c" x="594" y="50" width="12" height="12"/><rect class="c" x="594" y="66" width="12" height="12"/><rect class="c" x="594" y="82" width="12" height="12"/><rect class="c" x="594" y="98" width="12" height="12"/><rect class="c c3" x="610" y="2" width="12" height="12"/><rect class="c c4" x="610" y="18" width="12" height="12"/><rect class="c" x="610" y="34" width="12" height="12"/><rect class="c" x="610" y="50" width="12" height="12"/><rect class="c" x="610" y="66" width="12" height="12"/><rect class="c" x="610" y="82" width="12" height="12"/><rect class="c c5" x="610" y="98" width="12" height="12"/><rect class="c" x="626" y="2" width="12" height="12"/><rect class="c" x="626" y="18" width="12" height="12"/><rect class="c" x="626" y="34" width="12" height="12"/><rect class="c" x="626" y="50" width="12" height="12"/><rect class="c" x="626" y="66" width="12" height="12"/><rect class="c" x="626" y="82" width="12" height="12"/><rect class="c" x="626" y="98" width="12" height="12"/><rect class="c" x="642" y="2" width="12" height="12"/><rect class="c c6" x="642" y="18" width="12" height="12"/><rect class="c" x="642" y="34" width="12" height="12"/><rect class="c" x="642" y="50" width="12" height="12"/><rect class="c" x="642" y="66" width="12" height="12"/><rect class="c" x="642" y="82" width="12" height="12"/><rect class="c" x="642" y="98" width="12" height="12"/><rect class="c" x="658" y="2" width="12" height="12"/><rect class="c" x="658" y="18" width="12" height="12"/><rect class="c" x="658" y="34" width="12" height="12"/><rect class="c" x="658" y="50" width="12" height="12"/><rect class="c" x="658" y="66" width="12" height="12"/><rect class="c" x="658" y="82" width="12" height="12"/><rect class="c" x="658" y="98" width="12" height="12"/><rect class="c" x="674" y="2" width="12" height="12"/><rect class="c" x="674" y="18" width="12" height="12"/><rect class="c" x="674" y="34" width="12" height="12"/><rect class="c" x="674" y="50" width="12" height="12"/><rect class="c" x="674" y="66" width="12" height="12"/><rect class="c" x="674" y="82" width="12" height="12"/><rect class="c" x="674" y="98" width="12" height="12"/><rect class="c" x="690" y="2" width="12" height="12"/><rect class="c" x="690" y="18" width="12" height="12"/><rect class="c" x="690" y="34" width="12" height="12"/><rect class="c" x="690" y="50" width="12" height="12"/><rect class="c" x="690" y="66" width="12" height="12"/><rect class="c" x="690" y="82" width="12" height="12"/><rect class="c" x="690" y="98" width="12" height="12"/><rect class="c" x="706" y="2" width="12" height="12"/><rect class="c c7" x="706" y="18" width="12" height="12"/><rect class="c" x="706" y="34" width="12" height="12"/><rect class="c c8" x="706" y="50" width="12" height="12"/><rect class="c" x="706" y="66" width="12" height="12"/><rect class="c" x="706" y="82" width="12" height="12"/><rect class="c" x="706" y="98" width="12" height="12"/><rect class="c" x="722" y="2" width="12" height="12"/><rect class="c" x="722" y="18" width="12" height="12"/><rect class="c" x="722" y="34" width="12" height="12"/><rect class="c" x="722" y="50" width="12" height="12"/><rect class="c" x="722" y="66" width="12" height="12"/><rect class="c" x="722" y="82" width="12" height="12"/><rect class="c" x="722" y="98" width="12" height="12"/><rect class="c" x="738" y="2" width="12" height="12"/><rect class="c" x="738" y="18" width="12" height="12"/><rect class="c" x="738" y="34" width="12" height="12"/><rect class="c" x="738" y="50" width="12" height="12"/><rect class="c c9" x="738" y="66" width="12" height="12"/><rect class="c" x="738" y="82" width="12" height="12"/><rect class="c" x="738" y="98" width="12" height="12"/><rect class="c" x="754" y="2" width="12" height="12"/><rect class="c" x="754" y="18" width="12" height="12"/><rect class="c ca" x="754" y="34" width="12" height="12"/><rect class="c cb" x="754" y="50" width="12" height="12"/><rect class="c" x="754" y="66" width="12" height="12"/><rect class="c" x="754" y="82" width="12" height="12"/><rect class="c cc" x="754" y="98" width="12" height="12"/><rect class="c" x="770" y="2" width="12" height="12"/><rect class="c" x="770" y="18" width="12" height="12"/><rect class="c cd" x="770" y="34" width="12" height="12"/><rect class="c" x="770" y="50" width="12" height="12"/><rect class="c ce" x="770" y="66" width="12" height="12"/><rect class="c" x="770" y="82" width="12" height="12"/><rect class="c" x="770" y="98" width="12" height="12"/><rect class="c" x="786" y="2" width="12" height="12"/><rect class="c" x="786" y="18" width="12" height="12"/><rect class="c" x="786" y="34" width="12" height="12"/><rect class="c" x="786" y="50" width="12" height="12"/><rect class="c cf" x="786" y="66" width="12" height="12"/><rect class="c cg" x="786" y="82" width="12" height="12"/><rect class="c ch" x="786" y="98" width="12" height="12"/><rect class="c ci" x="802" y="2" width="12" height="12"/><rect class="c" x="802" y="18" width="12" height="12"/><rect class="c cj" x="802" y="34" width="12" height="12"/><rect class="c ck" x="802" y="50" width="12" height="12"/><rect class="c" x="802" y="66" width="12" height="12"/><rect class="c" x="802" y="82" width="12" height="12"/><rect class="c" x="802" y="98" width="12" height="12"/><rect class="c" x="818" y="2" width="12" height="12"/><rect class="c" x="818" y="18" width="12" height="12"/><rect class="c" x="818" y="34" width="12" height="12"/><rect class="c" x="818" y="50" width="12" height="12"/><rect class="c" x="818" y="66" width="12" height="12"/><rect class="c" x="818" y="82" width="12" height="12"/><rect class="c" x="818" y="98" width="12" height="12"/><rect class="c" x="834" y="2" width="12" height="12"/><rect class="c" x="834" y="18" width="12" height="12"/><rect class="c cl" x="834" y="34" width="12" height="12"/><rect class="u u0" height="12" width="270.4" x="0.0" y="144"/><rect class="u u1" height="12" width="193.3" x="269.8" y="144"/><rect class="u u2" height="12" width="154.8" x="462.5" y="144"/><rect class="u u3" height="12" width="231.9" x="616.7" y="144"/><rect class="s s0" x="0.8" y="0.8" width="14.4" height="14.4" rx="4.5" ry="4.5"/><rect class="s s1" x="1.8" y="1.8" width="12.3" height="12.3" rx="4.1" ry="4.1"/><rect class="s s2" x="2.6" y="2.6" width="10.8" height="10.8" rx="3.6" ry="3.6"/><rect class="s s3" x="3.0" y="3.0" width="9.9" height="9.9" rx="3.3" ry="3.3"/></svg>